<svg width="40" height="40" viewBox="0 0 40 40" fill="none" xmlns="http://www.w3.org/2000/svg">
<g clip-path="url(#clip0_1_57)">
<mask id="mask0_1_57" style="mask-type:luminance" maskUnits="userSpaceOnUse" x="0" y="0" width="40" height="40">
<path d="M40 0H0V40H40V0Z" fill="white"/>
</mask>
<g mask="url(#mask0_1_57)">
<path d="M20 39C30.4934 39 39 30.4934 39 20C39 9.50659 30.4934 1 20 1C9.50659 1 1 9.50659 1 20C1 30.4934 9.50659 39 20 39Z" stroke="#0079FF" stroke-width="2"/>
<mask id="mask1_1_57" style="mask-type:luminance" maskUnits="userSpaceOnUse" x="7" y="2" width="26" height="38">
<path d="M33 2H7V40H33V2Z" fill="white"/>
</mask>
<g mask="url(#mask1_1_57)">
<path d="M14.2429 13.3058C12.3026 13.4919 10.9655 14.4787 10.3006 16.3386C10.1378 16.7933 10.0877 17.2751 10.0868 17.7577C10.0839 20.2719 10.0902 22.786 10.0796 25.3002C10.0781 25.6087 10.1431 25.8094 10.4383 25.9609C16.5685 29.1017 24.198 28.9618 29.7953 24.4543C30.0976 24.211 30.2267 23.9606 30.2228 23.568C30.2045 21.701 30.2151 19.8339 30.2146 17.9666C30.2137 15.3164 28.659 13.5811 26.0474 13.3141C25.8972 13.3125 25.7465 13.3107 25.5963 13.3092C22.0718 13.3083 18.5469 13.3074 15.022 13.3065C14.981 13.3065 14.9406 13.3065 14.8997 13.3065C14.8669 13.3254 14.8342 13.3254 14.8019 13.3065C14.6151 13.3063 14.4288 13.3061 14.2429 13.3058ZM15.0022 21.3307C14.9642 21.0191 15.0176 20.704 15.1308 20.4146C15.3479 19.86 15.7037 19.4262 16.3249 19.3069C16.9224 19.192 17.3547 19.4786 17.6947 19.9332C18.2787 20.714 18.2291 22.025 17.5989 22.7722C16.9585 23.5314 15.9753 23.5001 15.4004 22.6908C15.1163 22.2904 14.969 21.8384 15.0022 21.3307ZM22.0015 21.8535C22.1744 20.6527 22.8951 19.8902 23.8013 19.898C24.6694 19.9053 25.4186 20.7277 25.5187 21.783C24.0189 20.5301 23.3073 20.5332 22.0015 21.8535Z" fill="#00DFA2"/>
<path d="M26.2752 38.1201C28.5333 37.9092 30.1978 36.0794 30.2151 33.7554C30.2305 31.6475 30.231 29.5391 30.2084 27.4312C30.2036 26.9555 30.3398 26.5831 30.6205 26.214C31.3702 25.2286 31.9566 24.1378 32.5527 23.055C32.6235 22.9259 32.7 22.7957 32.6182 22.5775C31.8666 23.6503 31.0486 24.6222 30.0914 25.4648C27.5381 27.7125 24.564 28.9982 21.1955 29.3342C16.6219 29.7902 12.537 28.4268 8.77667 25.8902C8.60864 25.7768 8.45793 25.5548 8.16904 25.7367C8.63079 26.338 9.11853 26.906 9.67464 27.4046C9.97556 27.6745 10.0911 27.9613 10.0863 28.3652C10.068 30.1402 10.0738 31.9156 10.08 33.6909C10.0882 36.0015 11.6612 37.8151 13.9078 38.1156C14.2747 38.0267 14.385 38.1778 14.3864 38.5462C14.3888 39.249 14.8226 39.7316 15.4057 39.746C16.0283 39.7616 16.5362 39.2732 16.5338 38.5883C16.5329 38.1866 16.6802 38.0997 17.049 38.1025C19.0818 38.1181 21.1146 38.1272 23.1474 38.0983C23.6472 38.0912 23.8706 38.2228 23.8182 38.7393C23.7758 39.1623 23.9958 39.4382 24.354 39.6165C25.0897 39.9829 25.8832 39.4648 25.9179 38.6009C25.928 38.3629 25.8211 38.028 26.2752 38.1201Z" fill="#0079FF"/>
<path d="M26.3474 6.12818C26.3233 5.66752 26.3339 5.20175 26.2694 4.74685C26.0869 3.4609 24.9684 2.46637 23.6862 2.45639C21.483 2.43931 19.2792 2.44597 17.0755 2.43976C16.6161 2.43843 16.1626 2.47525 15.7187 2.60211C15.202 2.88623 14.761 3.26239 14.3821 3.71396L14.3835 3.70797C14.3821 3.80734 14.3325 3.87853 14.254 3.93265C14.2203 4.0034 14.1871 4.07415 14.1539 4.14491C14.1105 4.29085 14.0667 4.43679 14.0234 4.58294C14.0094 4.65569 13.995 4.72844 13.981 4.80097C14.0277 5.27916 13.9141 5.76377 14.0388 6.23885L14.0311 6.23531C14.1957 6.2342 14.3643 6.21091 14.5251 6.23619C15.0523 6.31959 15.2786 6.11975 15.1934 5.57658C15.1736 5.45127 15.1939 5.31863 15.2025 5.18978C15.2675 4.27088 15.8544 3.68646 16.7693 3.68224C19.0438 3.67182 21.3178 3.68158 23.5923 3.68091C24.0637 3.68069 24.4441 3.85125 24.7099 4.25336L24.7171 4.25891C24.7503 4.29417 24.783 4.32922 24.8158 4.36448L24.8249 4.37379C24.8427 4.40507 24.8601 4.43634 24.8779 4.46761C24.915 4.553 24.9516 4.6384 24.9881 4.72378C25.1774 5.0638 25.1336 5.43818 25.1138 5.79793C25.0946 6.14459 25.2371 6.26747 25.552 6.23242C25.8177 6.2027 26.1013 6.30761 26.3474 6.12818Z" fill="#00DFA2"/>
<path d="M25.7248 12.9783C26.1297 12.9117 26.0026 12.5859 26.033 12.3371C25.9656 10.4922 25.9829 8.64688 26.0243 6.80155C26.0238 6.76341 26.0233 6.72504 26.0229 6.68688C26.0118 6.46309 25.9001 6.36861 25.6752 6.39545C25.5187 6.41408 25.4653 6.49215 25.4725 6.64563C25.4783 6.76939 25.4581 6.8945 25.4489 7.01892C25.4509 8.79435 25.4523 10.5698 25.4542 12.3455C25.5134 12.5699 25.3897 12.8734 25.7248 12.9783Z" fill="#00DFA2"/>
<path d="M14.799 12.9113C14.8053 10.8699 14.812 8.82831 14.8169 6.7869C14.8173 6.60702 14.8491 6.39965 14.5641 6.40475C14.319 6.40918 14.3339 6.58573 14.3262 6.75252C14.3219 6.84368 14.3089 6.93459 14.3002 7.02579C14.3233 8.8438 14.3513 10.6619 14.2853 12.4794C14.344 12.5791 14.3392 12.6773 14.2795 12.7742C14.3041 12.8217 14.3286 12.8691 14.3532 12.9166C14.502 12.9148 14.6503 12.9131 14.799 12.9113Z" fill="#00DFA2"/>
<path d="M8.71455 24.7901C8.23885 24.2079 7.71596 24.0761 7.30622 24.4117C6.84256 24.7907 7.08859 25.1833 7.35533 25.701C7.42707 25.3029 7.43718 24.9808 7.74485 24.8331C8.04048 24.6916 8.35007 24.8231 8.71455 24.7901Z" fill="#0079FF"/>
</g>
</g>
</g>
<defs>
<clipPath id="clip0_1_57">
<rect width="40" height="40" fill="white"/>
</clipPath>
</defs>
</svg>
